<?xml version="1.0" encoding="UTF-8" standalone="no"?>
<!DOCTYPE svg PUBLIC "-//W3C//DTD SVG 1.1//EN" "http://www.w3.org/Graphics/SVG/1.1/DTD/svg11.dtd">
<!-- Created with Vectornator (http://vectornator.io/) -->
<svg height="100%" stroke-miterlimit="10" style="fill-rule:nonzero;clip-rule:evenodd;stroke-linecap:round;stroke-linejoin:round;" version="1.1" viewBox="0 0 1024 1024" width="100%" xml:space="preserve" xmlns="http://www.w3.org/2000/svg" xmlns:vectornator="http://vectornator.io" xmlns:xlink="http://www.w3.org/1999/xlink">
<defs>
<linearGradient gradientTransform="matrix(1.96824 1.96824 -1.96824 1.96824 889.271 -962.545)" gradientUnits="userSpaceOnUse" id="LinearGradient" x1="368.462" x2="242.331" y1="427.053" y2="553.614">
<stop offset="0.422592" stop-color="#33312c"/>
<stop offset="1" stop-color="#f3c622"/>
</linearGradient>
<path d="M408.122 594.596C408.122 496.388 487.402 351.785 510.932 351.785C534.462 351.785 615.859 489.949 615.859 588.156C615.859 686.363 540.082 800.446 510.932 800.446C481.781 800.446 408.122 692.803 408.122 594.596Z" id="Fill"/>
<path d="M408.122 594.596C408.122 496.388 487.402 351.785 510.932 351.785C534.462 351.785 615.859 489.949 615.859 588.156C615.859 686.363 540.082 800.446 510.932 800.446C481.781 800.446 408.122 692.803 408.122 594.596Z" id="Fill_2"/>
<path d="M408.122 594.596C408.122 496.388 487.402 351.785 510.932 351.785C534.462 351.785 615.859 489.949 615.859 588.156C615.859 686.363 540.082 800.446 510.932 800.446C481.781 800.446 408.122 692.803 408.122 594.596Z" id="Fill_3"/>
<path d="M408.132 487.086C408.132 487.086 460.956 499.819 512.01 499.917C563.063 500.015 615.868 487.825 615.868 487.825" id="Fill_4"/>
</defs>
<g id="Layer-4" vectornator:layerName="Layer 4" visibility="hidden">
<path d="M0 0L1024 0L1024 1024L0 1024L0 0Z" fill="#0d1117" fill-rule="nonzero" opacity="1" stroke="none" vectornator:layerName="Rectangle 1"/>
</g>
<g id="Layer-2" vectornator:layerName="Layer 2"/>
<g id="Layer-1" vectornator:layerName="Layer 1">
<g opacity="1" vectornator:layerName="Group 12">
<path d="M0 511.997C0 229.229 229.229 0 511.997 0C794.771 0 1024 229.229 1024 511.997C1024 794.764 794.771 1023.99 511.997 1023.99C229.229 1023.99 0 794.764 0 511.997" fill="#f28f22" fill-rule="nonzero" opacity="1" stroke="none" vectornator:layerName="path"/>
<g opacity="1" vectornator:layerName="Group 13">
<path d="M23.7286 666.345C29.2546 660.137 34.4969 653.942 39.3879 647.761C133.831 528.275 98.8841 443.615 18.743 374.809C6.61673 418.491 0.00304792 464.455 0.00304792 511.994C0.00304792 565.796 8.34616 617.631 23.7286 666.345" fill="#e0f222" fill-rule="nonzero" opacity="1" stroke="none" vectornator:layerName="path"/>
<path d="M369.233 540.003C404.592 411.411 243.465 300.39 94.2146 216.209C82.9329 232.112 72.4685 248.622 63.031 265.795C193.366 340.511 321.465 441.399 267.846 568.612C232.595 652.233 145.347 710.074 73.0427 775.603C82.3249 791.032 92.4041 805.921 103.213 820.23C194.433 728.138 334.956 664.683 369.233 540.003" fill="#e0f222" fill-rule="nonzero" opacity="1" stroke="none" vectornator:layerName="path"/>
<path d="M647.043 412.24C696.345 599.572 421.475 719.557 318.621 834.232C283.013 873.935 255.504 907.915 240.581 946.071C255.437 955.38 270.772 963.98 286.6 971.748C294.754 935.228 311.69 897.958 340.435 859.269C448.821 713.389 730.251 619.352 691.663 404.532C662.438 241.838 490.273 157.684 433.297 6.02865C397.263 11.5885 362.526 20.999 329.383 33.6589C410.314 176.498 604.456 250.411 647.043 412.24" fill="#e0f222" fill-rule="nonzero" opacity="1" stroke="none" vectornator:layerName="path"/>
<path d="M816.089 381.589C870.938 626.62 523.993 725.724 408.311 894.018C383.883 929.546 372.243 966.357 369.385 1003.72C389.922 1009.66 410.939 1014.46 432.448 1017.81C434.63 979.084 445.676 940.983 469.746 904.3C585.556 727.798 944.168 639.003 901.946 388.203C881.949 269.407 808.172 177.349 768.719 69.0775C728.936 45.9667 685.822 27.9429 640.168 16.1747C678.891 148.28 785.102 243.175 816.089 381.589" fill="#e0f222" fill-rule="nonzero" opacity="1" stroke="none" vectornator:layerName="path"/>
<path d="M217.058 863.965C306.954 745.418 592.282 632.385 576.014 457.726C561.652 303.544 340.158 208.345 204.195 102.864C188.928 114.369 174.403 126.772 160.534 139.878C313.473 236.286 518.241 339.423 514.255 477.358C509.013 658.718 253.261 741.703 155.042 878.881C165.844 889.393 177.065 899.465 188.759 908.997C196.366 893.919 205.729 878.901 217.058 863.965" fill="#e0f222" fill-rule="nonzero" opacity="1" stroke="none" vectornator:layerName="path"/>
<path d="M710.787 892.729C772.377 785.288 887.769 731.183 998.472 671.66C1002.22 660.223 1005.64 648.637 1008.59 636.855C900.955 711.734 770.425 764.353 689.094 873.725C658.12 915.38 646.798 959.791 647.967 1005.6C660.863 1002.05 673.59 998.109 686.054 993.603C685.318 958.616 692.418 924.764 710.787 892.729" fill="#e0f222" fill-rule="nonzero" opacity="1" stroke="none" vectornator:layerName="path"/>
<path d="M786.212 916.681C781.666 927.652 778.713 938.839 777.004 950.155C857.355 901.454 923.12 831.21 966.572 747.508C885.35 790.426 817.18 841.964 786.212 916.681" fill="#e0f222" fill-rule="nonzero" opacity="1" stroke="none" vectornator:layerName="path"/>
<path d="M1022.27 552.296C1023.31 538.981 1024 525.571 1024 511.999C1024 485.909 1022.02 460.292 1018.26 435.256C1000.29 645.725 704.564 722.043 592.773 877.866C557.043 927.675 541.174 975.795 538.12 1023.33C552.929 1022.59 567.534 1021.09 581.991 1019.11C583.477 976.497 595.076 933.68 621.815 890.438C710.002 747.822 924.862 687.123 1022.27 552.296" fill="#e0f222" fill-rule="nonzero" opacity="1" stroke="none" vectornator:layerName="path"/>
</g>
</g>
<g opacity="1" vectornator:layerName="Group 11">
<path d="M408.122 594.596C408.122 496.388 487.402 351.785 510.932 351.785C534.462 351.785 615.859 489.949 615.859 588.156C615.859 686.363 540.082 800.446 510.932 800.446C481.781 800.446 408.122 692.803 408.122 594.596Z" fill="url(#LinearGradient)" fill-rule="nonzero" opacity="1" stroke="#33312c" stroke-linecap="butt" stroke-linejoin="round" stroke-width="33.0761" vectornator:layerName="Oval 1"/>
<path d="M413.689 351.785C413.689 351.785 416.281 253.484 511.99 253.484C607.7 253.484 610.292 351.785 610.292 351.785L413.689 351.785Z" fill="#f3c622" fill-rule="nonzero" opacity="1" stroke="#33312c" stroke-linecap="butt" stroke-linejoin="round" stroke-width="33.0761" vectornator:layerName="Oval 2"/>
<path d="M469.02 253.484C469.02 253.484 451.903 213.509 417.864 225.956" fill="none" opacity="1" stroke="#33312c" stroke-linecap="round" stroke-linejoin="round" stroke-width="33.0761" vectornator:layerName="Curve 2"/>
<path d="M557.039 253.484C557.039 253.484 574.156 213.509 608.195 225.956" fill="none" opacity="1" stroke="#33312c" stroke-linecap="round" stroke-linejoin="round" stroke-width="33.0761" vectornator:layerName="Curve 3"/>
<g opacity="1" vectornator:layerName="Group 2">
<use fill="none" opacity="1" stroke="#f2ac22" stroke-linecap="butt" stroke-linejoin="round" stroke-width="33.0761" vectornator:layerName="Oval 5" xlink:href="#Fill"/>
<clipPath clip-rule="nonzero" id="ClipPath">
<use xlink:href="#Fill"/>
</clipPath>
<g clip-path="url(#ClipPath)">
<path d="M408.122 563.285C408.122 563.285 460.946 576.018 512 576.116C563.054 576.213 615.859 564.024 615.859 564.024" fill="none" opacity="1" stroke="#f2de22" stroke-linecap="butt" stroke-linejoin="miter" stroke-width="33.0761" vectornator:layerName="Curve 4"/>
</g>
</g>
<g opacity="1" vectornator:layerName="Group 3">
<use fill="none" opacity="1" stroke="#f3c622" stroke-linecap="butt" stroke-linejoin="round" stroke-width="33.0761" vectornator:layerName="Oval 4" xlink:href="#Fill_2"/>
<clipPath clip-rule="nonzero" id="ClipPath_2">
<use xlink:href="#Fill_2"/>
</clipPath>
<g clip-path="url(#ClipPath_2)">
<path d="M413.689 639.504C413.689 639.504 462.849 656.039 512 656.039C561.151 656.039 610.292 639.504 610.292 639.504" fill="none" opacity="1" stroke="#f3c622" stroke-linecap="round" stroke-linejoin="miter" stroke-width="33.0761" vectornator:layerName="Curve 5"/>
</g>
</g>
<g opacity="1" vectornator:layerName="Group 4">
<use fill="none" opacity="1" stroke="#f2de22" stroke-linecap="butt" stroke-linejoin="round" stroke-width="33.0761" vectornator:layerName="Oval 3" xlink:href="#Fill_3"/>
<clipPath clip-rule="nonzero" id="ClipPath_3">
<use xlink:href="#Fill_3"/>
</clipPath>
<g clip-path="url(#ClipPath_3)">
<path d="M443.442 718.569C443.442 718.569 478.844 731.284 511.99 731.2C545.137 731.116 576.027 718.232 576.027 718.232" fill="none" opacity="1" stroke="#f2de22" stroke-linecap="square" stroke-linejoin="miter" stroke-width="33.0761" vectornator:layerName="Curve 6"/>
</g>
</g>
<g opacity="1" vectornator:layerName="Group 1">
<use fill="none" opacity="1" stroke="#f3c622" stroke-linecap="butt" stroke-linejoin="miter" stroke-width="33.0761" vectornator:layerName="Curve 7" xlink:href="#Fill_4"/>
<clipPath clip-rule="nonzero" id="ClipPath_4">
<use xlink:href="#Fill_4"/>
</clipPath>
<g clip-path="url(#ClipPath_4)">
<path d="M408.122 594.596C408.122 496.388 487.402 351.785 510.932 351.785C534.462 351.785 615.859 489.949 615.859 588.156C615.859 686.363 540.082 800.446 510.932 800.446C481.781 800.446 408.122 692.803 408.122 594.596Z" fill="none" opacity="1" stroke="#f3c622" stroke-linecap="butt" stroke-linejoin="round" stroke-width="33.0761" vectornator:layerName="Oval 4"/>
</g>
</g>
<path d="M408.122 594.596C408.122 496.388 487.402 351.785 510.932 351.785C534.462 351.785 615.859 489.949 615.859 588.156C615.859 686.363 540.082 800.446 510.932 800.446C481.781 800.446 408.122 692.803 408.122 594.596Z" fill="none" opacity="1" stroke="#33312c" stroke-linecap="butt" stroke-linejoin="round" stroke-width="33.0761" vectornator:layerName="Oval 3"/>
<path d="M482.889 352.803C428.405 353.285 308.777 374.396 223.24 428.61C83.7825 516.999 177.243 622.53 260.991 621.368C390.657 619.569 511.985 394.438 511.985 358.761C511.985 356.405 508.109 354.685 501.139 353.714C496.402 353.053 490.237 352.738 482.889 352.803ZM511.985 358.761C511.985 394.438 633.313 619.569 762.979 621.368C846.727 622.53 940.231 516.999 800.774 428.61C704.171 367.383 564.027 348.407 523.41 353.654C516.074 354.602 511.985 356.34 511.985 358.761Z" fill="#ffffff" fill-rule="nonzero" opacity="1" stroke="#33312c" stroke-linecap="butt" stroke-linejoin="round" stroke-width="33.0761" vectornator:layerName="Curve 1"/>
</g>
</g>
</svg>
