<?xml version="1.0" encoding="UTF-8" standalone="no"?>
<!DOCTYPE svg PUBLIC "-//W3C//DTD SVG 1.1//EN" "http://www.w3.org/Graphics/SVG/1.1/DTD/svg11.dtd">
<!-- Created with Vectornator (http://vectornator.io/) -->
<svg height="100%" stroke-miterlimit="10" style="fill-rule:nonzero;clip-rule:evenodd;stroke-linecap:round;stroke-linejoin:round;" version="1.1" viewBox="0 0 1024 1024" width="100%" xml:space="preserve" xmlns="http://www.w3.org/2000/svg" xmlns:xlink="http://www.w3.org/1999/xlink">
<defs>
<linearGradient gradientTransform="matrix(1.26232 0 0 1.26232 -134.929 -135.244)" gradientUnits="userSpaceOnUse" id="LinearGradient" x1="183.273" x2="376.617" y1="492.444" y2="491.421">
<stop offset="0.422592" stop-color="#33312c"/>
<stop offset="1" stop-color="#f3c622"/>
</linearGradient>
<path d="M210.112 518.379C178.62 486.887 157.672 415.094 165.218 407.548C172.763 400.003 243.17 418.206 274.663 449.699C306.155 481.191 318.439 542.074 309.091 551.422C299.744 560.769 241.605 549.872 210.112 518.379Z" id="Fill"/>
<path d="M210.112 518.379C178.62 486.887 157.672 415.094 165.218 407.548C172.763 400.003 243.17 418.206 274.663 449.699C306.155 481.191 318.439 542.074 309.091 551.422C299.744 560.769 241.605 549.872 210.112 518.379Z" id="Fill_2"/>
<path d="M210.112 518.379C178.62 486.887 157.672 415.094 165.218 407.548C172.763 400.003 243.17 418.206 274.663 449.699C306.155 481.191 318.439 542.074 309.091 551.422C299.744 560.769 241.605 549.872 210.112 518.379Z" id="Fill_3"/>
<path d="M175.64 483.901C175.64 483.901 196.663 471.045 213.066 454.704C229.468 438.364 242.493 417.522 242.493 417.522" id="Fill_4"/>
<linearGradient gradientTransform="matrix(-1.26232 -1.54589e-16 0 1.26232 1157.69 -141.263)" gradientUnits="userSpaceOnUse" id="LinearGradient_2" x1="201.168" x2="355.711" y1="495.226" y2="493.226">
<stop offset="0.422592" stop-color="#33312c"/>
<stop offset="1" stop-color="#f3c622"/>
</linearGradient>
<path d="M812.644 512.361C844.136 480.868 865.084 409.075 857.538 401.53C849.993 393.984 779.586 412.188 748.093 443.68C716.601 475.173 704.317 536.056 713.665 545.403C723.013 554.751 781.152 543.853 812.644 512.361Z" id="Fill_5"/>
<path d="M812.644 512.361C844.136 480.868 865.084 409.075 857.538 401.53C849.993 393.984 779.586 412.188 748.093 443.68C716.601 475.173 704.317 536.056 713.665 545.403C723.013 554.751 781.152 543.853 812.644 512.361Z" id="Fill_6"/>
<path d="M812.644 512.361C844.136 480.868 865.084 409.075 857.538 401.53C849.993 393.984 779.586 412.188 748.093 443.68C716.601 475.173 704.317 536.056 713.665 545.403C723.013 554.751 781.152 543.853 812.644 512.361Z" id="Fill_7"/>
<path d="M847.116 477.882C847.116 477.882 826.093 465.026 809.691 448.686C793.288 432.346 780.264 411.504 780.264 411.504" id="Fill_8"/>
<linearGradient gradientTransform="matrix(0.892594 0.892594 -0.892594 0.892594 682.47 -419.906)" gradientUnits="userSpaceOnUse" id="LinearGradient_3" x1="368.462" x2="242.331" y1="427.053" y2="553.614">
<stop offset="0.422592" stop-color="#33312c"/>
<stop offset="1" stop-color="#f3c622"/>
</linearGradient>
<path d="M464.269 286.257C464.269 241.72 500.223 176.142 510.894 176.142C521.564 176.142 558.478 238.799 558.478 283.336C558.478 327.873 524.113 379.61 510.894 379.61C497.674 379.61 464.269 330.794 464.269 286.257Z" id="Fill_9"/>
<path d="M464.269 286.257C464.269 241.72 500.223 176.142 510.894 176.142C521.564 176.142 558.478 238.799 558.478 283.336C558.478 327.873 524.113 379.61 510.894 379.61C497.674 379.61 464.269 330.794 464.269 286.257Z" id="Fill_10"/>
<path d="M464.269 286.257C464.269 241.72 500.223 176.142 510.894 176.142C521.564 176.142 558.478 238.799 558.478 283.336C558.478 327.873 524.113 379.61 510.894 379.61C497.674 379.61 464.269 330.794 464.269 286.257Z" id="Fill_11"/>
<path d="M464.274 237.501C464.274 237.501 488.23 243.276 511.383 243.32C534.535 243.364 558.482 237.836 558.482 237.836" id="Fill_12"/>
<linearGradient gradientTransform="matrix(1.26232 0 0 1.26232 -134.929 -135.244)" gradientUnits="userSpaceOnUse" id="LinearGradient_4" x1="374.5" x2="649.5" y1="542" y2="542">
<stop offset="0.317569" stop-color="#33312c" stop-opacity="0.4"/>
<stop offset="1" stop-color="#f3c622" stop-opacity="0.4"/>
</linearGradient>
</defs>
<g id="Layer-4" visibility="hidden">
<path d="M0 0L1024 0L1024 1024L0 1024L0 0Z" fill="#0d1117" fill-rule="nonzero" opacity="1" stroke="none"/>
</g>
<g id="Layer-3">
<path d="M56.25 695.812C129.053 876.13 305.602 1003.44 512 1003.44C718.403 1003.44 894.947 876.13 967.75 695.812L56.25 695.812Z" fill="#f3f3f3" fill-rule="nonzero" opacity="1" stroke="none"/>
<g opacity="0">
<path d="M948.312 738.062C870.351 779.257 804.912 828.721 775.188 900.438C770.824 910.968 768.015 921.701 766.375 932.562C843.5 885.817 906.605 818.403 948.312 738.062Z" fill="#8c7e4c" fill-rule="nonzero" opacity="1" stroke="none"/>
<path d="M886.625 695.812C811.083 740.981 735.471 787.311 682 859.219C652.269 899.201 641.378 941.811 642.5 985.781C654.879 982.377 667.099 978.606 679.062 974.281C678.356 940.699 685.182 908.186 702.812 877.438C751.348 792.771 834.762 742.673 921.844 695.812L886.625 695.812Z" fill="#8c7e4c" fill-rule="nonzero" opacity="1" stroke="none"/>
<path d="M791.281 695.812C714.885 748.373 635.803 798.691 589.531 863.188C555.236 910.996 539.993 957.182 537.062 1002.81C551.276 1002.1 565.311 1000.65 579.188 998.75C580.614 957.847 591.741 916.756 617.406 875.25C663.946 799.986 747.147 748.432 828.25 695.812L791.281 695.812Z" fill="#8c7e4c" fill-rule="nonzero" opacity="1" stroke="none"/>
<path d="M623.625 695.812C544.018 755.207 458.884 811.163 412.469 878.688C389.021 912.789 377.868 948.11 375.125 983.969C394.837 989.675 415.01 994.277 435.656 997.5C437.751 960.325 448.334 923.772 471.438 888.562C519.715 814.984 611.946 757.267 697.531 695.812L623.625 695.812Z" fill="#8c7e4c" fill-rule="nonzero" opacity="1" stroke="none"/>
<path d="M477.25 695.812C420.402 740.222 362.394 781.153 326.375 821.312C292.196 859.421 265.793 892.033 251.469 928.656C265.728 937.592 280.464 945.824 295.656 953.281C303.483 918.227 319.722 882.479 347.312 845.344C387.486 791.274 452.387 744.587 514.844 695.812L477.25 695.812Z" fill="#8c7e4c" fill-rule="nonzero" opacity="1" stroke="none"/>
<path d="M364.188 695.812C293.097 750.641 214.2 801.551 169.375 864.156C179.743 874.246 190.526 883.913 201.75 893.062C209.051 878.589 218.032 864.18 228.906 849.844C267.199 799.347 342.394 749.86 412.875 695.812L364.188 695.812Z" fill="#8c7e4c" fill-rule="nonzero" opacity="1" stroke="none"/>
<path d="M171.25 695.812C144.62 718.973 116.633 741.489 90.6562 765.031C99.5657 779.841 109.25 794.11 119.625 807.844C159.564 767.524 209.288 732.879 254.75 695.812L171.25 695.812Z" fill="#8c7e4c" fill-rule="nonzero" opacity="1" stroke="none"/>
</g>
</g>
<g id="Layer-2">
<g opacity="1">
<path d="M512 20.5625C240.585 20.5625 20.5625 240.585 20.5625 512C20.5625 568.751 30.3025 623.19 48 673.906L976 673.906C993.698 623.19 1003.44 568.751 1003.44 512C1003.44 240.585 783.421 20.5625 512 20.5625Z" fill="#f28f22" fill-rule="nonzero" opacity="1" stroke="none"/>
<path d="M436.469 26.3438C401.881 31.6804 368.531 40.7234 336.719 52.875C414.401 189.98 600.748 260.918 641.625 416.25C668.877 519.797 592.861 601.858 504.688 673.906L542.406 673.906C630.481 602.406 705.049 523.587 684.438 408.844C656.386 252.682 491.158 171.91 436.469 26.3438Z" fill="#e0f222" fill-rule="nonzero" opacity="1" stroke="none"/>
<path d="M635.031 36.0938C672.199 162.895 774.131 253.986 803.875 386.844C831.838 511.768 750.81 597.077 652.219 673.906L727.25 673.906C825.981 599.718 907.138 517.074 886.281 393.188C867.088 279.161 796.275 190.799 758.406 86.875C720.22 64.6921 678.852 47.3895 635.031 36.0938Z" fill="#e0f222" fill-rule="nonzero" opacity="1" stroke="none"/>
<path d="M216.562 119.281C201.908 130.324 187.969 142.233 174.656 154.812C321.455 247.35 517.982 346.353 514.156 478.75C511.832 559.166 458.025 619.354 391.688 673.906L440.75 673.906C517.422 611.899 581.197 543.219 573.438 459.906C559.652 311.914 347.066 220.528 216.562 119.281Z" fill="#e0f222" fill-rule="nonzero" opacity="1" stroke="none"/>
<path d="M111 228.094C100.171 243.358 90.1211 259.204 81.0625 275.688C206.165 347.404 329.122 444.237 277.656 566.344C260.43 607.209 230.22 641.628 195.594 673.906L280.594 673.906C323.769 635.641 359.987 593.369 374.969 538.875C408.908 415.446 254.258 308.895 111 228.094Z" fill="#e0f222" fill-rule="nonzero" opacity="1" stroke="none"/>
<path d="M38.5312 380.312C26.8919 422.24 20.5625 466.37 20.5625 512C20.5625 563.641 28.5789 613.398 43.3438 660.156C48.6479 654.197 53.6804 648.246 58.375 642.312C149.026 527.624 115.455 446.355 38.5312 380.312Z" fill="#e0f222" fill-rule="nonzero" opacity="1" stroke="none"/>
<path d="M997.938 438.344C989.151 541.25 911.131 610.716 822.562 673.906L861.781 673.906C916.051 637.564 966.801 599.106 1001.78 550.688C1002.78 537.907 1003.44 525.027 1003.44 512C1003.44 486.958 1001.55 462.375 997.938 438.344Z" fill="#e0f222" fill-rule="nonzero" opacity="1" stroke="none"/>
<path d="M988.656 631.844C967.494 646.566 945.317 660.324 922.906 673.906L962.688 673.906C968.107 671.02 973.534 668.156 978.938 665.25C982.536 654.272 985.823 643.152 988.656 631.844Z" fill="#e0f222" fill-rule="nonzero" opacity="1" stroke="none"/>
</g>
</g>
<g id="Layer-1">
<g opacity="1">
<path d="M210.112 518.379C178.62 486.887 157.672 415.094 165.218 407.548C172.763 400.003 243.17 418.206 274.663 449.699C306.155 481.191 318.439 542.074 309.091 551.422C299.744 560.769 241.605 549.872 210.112 518.379Z" fill="url(#LinearGradient)" fill-rule="nonzero" opacity="1" stroke="#33312c" stroke-linecap="butt" stroke-linejoin="round" stroke-width="15"/>
<path d="M134.035 438.731C134.035 438.731 103.343 406.378 134.035 375.686C164.726 344.995 197.08 375.686 197.08 375.686L134.035 438.731Z" fill="#f3c622" fill-rule="nonzero" opacity="1" stroke="#33312c" stroke-linecap="butt" stroke-linejoin="round" stroke-width="15"/>
<path d="M120.255 389.466C120.255 389.466 101.948 382.136 95.0237 397.042" fill="none" opacity="1" stroke="#33312c" stroke-linecap="round" stroke-linejoin="round" stroke-width="15"/>
<path d="M148.481 361.24C148.481 361.24 141.151 342.932 156.058 336.008" fill="none" opacity="1" stroke="#33312c" stroke-linecap="round" stroke-linejoin="round" stroke-width="15"/>
<g opacity="1">
<use fill="none" opacity="1" stroke="#f2ac22" stroke-linecap="butt" stroke-linejoin="round" stroke-width="15" xlink:href="#Fill"/>
<clipPath clip-rule="nonzero" id="ClipPath">
<use xlink:href="#Fill"/>
</clipPath>
<g clip-path="url(#ClipPath)">
<path d="M200.072 508.339C200.072 508.339 221.094 495.482 237.497 479.142C253.9 462.802 266.924 441.96 266.924 441.96" fill="none" opacity="1" stroke="#f2de22" stroke-linecap="butt" stroke-linejoin="miter" stroke-width="15"/>
</g>
</g>
<g opacity="1">
<use fill="none" opacity="1" stroke="#f3c622" stroke-linecap="butt" stroke-linejoin="round" stroke-width="15" xlink:href="#Fill_2"/>
<clipPath clip-rule="nonzero" id="ClipPath_2">
<use xlink:href="#Fill_2"/>
</clipPath>
<g clip-path="url(#ClipPath_2)">
<path d="M226.298 530.995C226.298 530.995 247.365 520.533 263.126 504.772C278.888 489.01 289.343 467.95 289.343 467.95" fill="none" opacity="1" stroke="#f3c622" stroke-linecap="round" stroke-linejoin="miter" stroke-width="15"/>
</g>
</g>
<g opacity="1">
<use fill="none" opacity="1" stroke="#f2de22" stroke-linecap="butt" stroke-linejoin="round" stroke-width="15" xlink:href="#Fill_3"/>
<clipPath clip-rule="nonzero" id="ClipPath_3">
<use xlink:href="#Fill_3"/>
</clipPath>
<g clip-path="url(#ClipPath_3)">
<path d="M261.193 546.808C261.193 546.808 276.623 539.533 287.225 528.877C297.827 518.221 303.602 504.183 303.602 504.183" fill="none" opacity="1" stroke="#f2de22" stroke-linecap="square" stroke-linejoin="miter" stroke-width="15"/>
</g>
</g>
<g opacity="1">
<use fill="none" opacity="1" stroke="#f3c622" stroke-linecap="butt" stroke-linejoin="miter" stroke-width="15" xlink:href="#Fill_4"/>
<clipPath clip-rule="nonzero" id="ClipPath_4">
<use xlink:href="#Fill_4"/>
</clipPath>
<g clip-path="url(#ClipPath_4)">
<path d="M210.112 518.379C178.62 486.887 157.672 415.094 165.218 407.548C172.763 400.003 243.17 418.206 274.663 449.699C306.155 481.191 318.439 542.074 309.091 551.422C299.744 560.769 241.605 549.872 210.112 518.379Z" fill="none" opacity="1" stroke="#f3c622" stroke-linecap="butt" stroke-linejoin="round" stroke-width="15"/>
</g>
</g>
<path d="M210.112 518.379C178.62 486.887 157.672 415.094 165.218 407.548C172.763 400.003 243.17 418.206 274.663 449.699C306.155 481.191 318.439 542.074 309.091 551.422C299.744 560.769 241.605 549.872 210.112 518.379Z" fill="none" opacity="1" stroke="#33312c" stroke-linecap="butt" stroke-linejoin="round" stroke-width="15"/>
<path d="M156.552 416.867C139.235 434.493 107.643 479.624 97.5987 524.439C81.2224 597.503 145.034 601.373 171.517 574.145C212.52 531.988 179.233 420.888 167.793 409.448C167.037 408.692 165.243 409.384 162.696 411.307C160.965 412.614 158.887 414.49 156.552 416.867ZM167.793 409.448C179.233 420.888 290.333 454.175 332.49 413.171C359.719 386.688 355.862 322.863 282.798 339.239C232.186 350.583 181.161 389.439 169.819 404.146C167.77 406.802 167.016 408.671 167.793 409.448Z" fill="#ffffff" fill-rule="nonzero" opacity="1" stroke="#33312c" stroke-linecap="butt" stroke-linejoin="round" stroke-width="15"/>
</g>
<g opacity="1">
<path d="M812.644 512.361C844.136 480.868 865.084 409.075 857.538 401.53C849.993 393.984 779.586 412.188 748.093 443.68C716.601 475.173 704.317 536.056 713.665 545.403C723.013 554.751 781.152 543.853 812.644 512.361Z" fill="url(#LinearGradient_2)" fill-rule="nonzero" opacity="1" stroke="#33312c" stroke-linecap="butt" stroke-linejoin="round" stroke-width="15"/>
<path d="M888.721 432.713C888.721 432.713 919.413 400.359 888.721 369.668C858.03 338.976 825.676 369.668 825.676 369.668L888.721 432.713Z" fill="#f3c622" fill-rule="nonzero" opacity="1" stroke="#33312c" stroke-linecap="butt" stroke-linejoin="round" stroke-width="15"/>
<path d="M902.501 383.447C902.501 383.447 920.808 376.117 927.733 391.024" fill="none" opacity="1" stroke="#33312c" stroke-linecap="round" stroke-linejoin="round" stroke-width="15"/>
<path d="M874.275 355.222C874.275 355.222 881.605 336.914 866.699 329.99" fill="none" opacity="1" stroke="#33312c" stroke-linecap="round" stroke-linejoin="round" stroke-width="15"/>
<g opacity="1">
<use fill="none" opacity="1" stroke="#f2ac22" stroke-linecap="butt" stroke-linejoin="round" stroke-width="15" xlink:href="#Fill_5"/>
<clipPath clip-rule="nonzero" id="ClipPath_5">
<use xlink:href="#Fill_5"/>
</clipPath>
<g clip-path="url(#ClipPath_5)">
<path d="M822.685 502.32C822.685 502.32 801.662 489.464 785.259 473.124C768.856 456.784 755.832 435.942 755.832 435.942" fill="none" opacity="1" stroke="#f2de22" stroke-linecap="butt" stroke-linejoin="miter" stroke-width="15"/>
</g>
</g>
<g opacity="1">
<use fill="none" opacity="1" stroke="#f3c622" stroke-linecap="butt" stroke-linejoin="round" stroke-width="15" xlink:href="#Fill_6"/>
<clipPath clip-rule="nonzero" id="ClipPath_6">
<use xlink:href="#Fill_6"/>
</clipPath>
<g clip-path="url(#ClipPath_6)">
<path d="M796.458 524.976C796.458 524.976 775.391 514.514 759.63 498.753C743.868 482.992 733.413 461.931 733.413 461.931" fill="none" opacity="1" stroke="#f3c622" stroke-linecap="round" stroke-linejoin="miter" stroke-width="15"/>
</g>
</g>
<g opacity="1">
<use fill="none" opacity="1" stroke="#f2de22" stroke-linecap="butt" stroke-linejoin="round" stroke-width="15" xlink:href="#Fill_7"/>
<clipPath clip-rule="nonzero" id="ClipPath_7">
<use xlink:href="#Fill_7"/>
</clipPath>
<g clip-path="url(#ClipPath_7)">
<path d="M761.563 540.789C761.563 540.789 746.133 533.514 735.531 522.858C724.929 512.202 719.154 498.165 719.154 498.165" fill="none" opacity="1" stroke="#f2de22" stroke-linecap="square" stroke-linejoin="miter" stroke-width="15"/>
</g>
</g>
<g opacity="1">
<use fill="none" opacity="1" stroke="#f3c622" stroke-linecap="butt" stroke-linejoin="miter" stroke-width="15" xlink:href="#Fill_8"/>
<clipPath clip-rule="nonzero" id="ClipPath_8">
<use xlink:href="#Fill_8"/>
</clipPath>
<g clip-path="url(#ClipPath_8)">
<path d="M812.644 512.361C844.136 480.868 865.084 409.075 857.538 401.53C849.993 393.984 779.586 412.188 748.093 443.68C716.601 475.173 704.317 536.056 713.665 545.403C723.013 554.751 781.152 543.853 812.644 512.361Z" fill="none" opacity="1" stroke="#f3c622" stroke-linecap="butt" stroke-linejoin="round" stroke-width="15"/>
</g>
</g>
<path d="M812.644 512.361C844.136 480.868 865.084 409.075 857.538 401.53C849.993 393.984 779.586 412.188 748.093 443.68C716.601 475.173 704.317 536.056 713.665 545.403C723.013 554.751 781.152 543.853 812.644 512.361Z" fill="none" opacity="1" stroke="#33312c" stroke-linecap="butt" stroke-linejoin="round" stroke-width="15"/>
<path d="M866.204 410.849C883.521 428.475 915.113 473.606 925.158 518.42C941.534 591.484 877.723 595.355 851.24 568.127C810.236 525.969 843.523 414.87 854.963 403.429C855.719 402.674 857.513 403.365 860.06 405.288C861.791 406.596 863.869 408.472 866.204 410.849ZM854.963 403.429C843.523 414.87 732.423 448.156 690.266 407.153C663.038 380.67 666.894 316.845 739.958 333.221C790.57 344.565 841.595 383.42 852.937 398.128C854.986 400.784 855.74 402.653 854.963 403.429Z" fill="#ffffff" fill-rule="nonzero" opacity="1" stroke="#33312c" stroke-linecap="butt" stroke-linejoin="round" stroke-width="15"/>
</g>
<g opacity="1">
<path d="M464.269 286.257C464.269 241.72 500.223 176.142 510.894 176.142C521.564 176.142 558.478 238.799 558.478 283.336C558.478 327.873 524.113 379.61 510.894 379.61C497.674 379.61 464.269 330.794 464.269 286.257Z" fill="url(#LinearGradient_3)" fill-rule="nonzero" opacity="1" stroke="#33312c" stroke-linecap="butt" stroke-linejoin="round" stroke-width="15"/>
<path d="M466.794 176.142C466.794 176.142 467.969 131.563 511.374 131.563C554.778 131.563 555.953 176.142 555.953 176.142L466.794 176.142Z" fill="#f3c622" fill-rule="nonzero" opacity="1" stroke="#33312c" stroke-linecap="butt" stroke-linejoin="round" stroke-width="15"/>
<path d="M491.887 131.563C491.887 131.563 484.124 113.434 468.688 119.079" fill="none" opacity="1" stroke="#33312c" stroke-linecap="round" stroke-linejoin="round" stroke-width="15"/>
<path d="M531.803 131.563C531.803 131.563 539.566 113.434 555.003 119.079" fill="none" opacity="1" stroke="#33312c" stroke-linecap="round" stroke-linejoin="round" stroke-width="15"/>
<g opacity="1">
<use fill="none" opacity="1" stroke="#f2ac22" stroke-linecap="butt" stroke-linejoin="round" stroke-width="15" xlink:href="#Fill_9"/>
<clipPath clip-rule="nonzero" id="ClipPath_9">
<use xlink:href="#Fill_9"/>
</clipPath>
<g clip-path="url(#ClipPath_9)">
<path d="M464.269 272.057C464.269 272.057 488.225 277.832 511.378 277.876C534.531 277.92 558.478 272.392 558.478 272.392" fill="none" opacity="1" stroke="#f2de22" stroke-linecap="butt" stroke-linejoin="miter" stroke-width="15"/>
</g>
</g>
<g opacity="1">
<use fill="none" opacity="1" stroke="#f3c622" stroke-linecap="butt" stroke-linejoin="round" stroke-width="15" xlink:href="#Fill_10"/>
<clipPath clip-rule="nonzero" id="ClipPath_10">
<use xlink:href="#Fill_10"/>
</clipPath>
<g clip-path="url(#ClipPath_10)">
<path d="M466.794 306.623C466.794 306.623 489.088 314.121 511.378 314.121C533.668 314.121 555.953 306.623 555.953 306.623" fill="none" opacity="1" stroke="#f3c622" stroke-linecap="round" stroke-linejoin="miter" stroke-width="15"/>
</g>
</g>
<g opacity="1">
<use fill="none" opacity="1" stroke="#f2de22" stroke-linecap="butt" stroke-linejoin="round" stroke-width="15" xlink:href="#Fill_11"/>
<clipPath clip-rule="nonzero" id="ClipPath_11">
<use xlink:href="#Fill_11"/>
</clipPath>
<g clip-path="url(#ClipPath_11)">
<path d="M480.287 342.479C480.287 342.479 496.342 348.245 511.374 348.207C526.406 348.169 540.414 342.326 540.414 342.326" fill="none" opacity="1" stroke="#f2de22" stroke-linecap="square" stroke-linejoin="miter" stroke-width="15"/>
</g>
</g>
<g opacity="1">
<use fill="none" opacity="1" stroke="#f3c622" stroke-linecap="butt" stroke-linejoin="miter" stroke-width="15" xlink:href="#Fill_12"/>
<clipPath clip-rule="nonzero" id="ClipPath_12">
<use xlink:href="#Fill_12"/>
</clipPath>
<g clip-path="url(#ClipPath_12)">
<path d="M464.269 286.257C464.269 241.72 500.223 176.142 510.894 176.142C521.564 176.142 558.478 238.799 558.478 283.336C558.478 327.873 524.113 379.61 510.894 379.61C497.674 379.61 464.269 330.794 464.269 286.257Z" fill="none" opacity="1" stroke="#f3c622" stroke-linecap="butt" stroke-linejoin="round" stroke-width="15"/>
</g>
</g>
<path d="M464.269 286.257C464.269 241.72 500.223 176.142 510.894 176.142C521.564 176.142 558.478 238.799 558.478 283.336C558.478 327.873 524.113 379.61 510.894 379.61C497.674 379.61 464.269 330.794 464.269 286.257Z" fill="none" opacity="1" stroke="#33312c" stroke-linecap="butt" stroke-linejoin="round" stroke-width="15"/>
<path d="M498.176 176.604C473.468 176.823 419.217 186.396 380.426 210.982C317.182 251.067 359.566 298.925 397.546 298.398C456.349 297.582 511.371 195.485 511.371 179.306C511.371 178.237 509.613 177.458 506.453 177.017C504.305 176.717 501.509 176.574 498.176 176.604ZM511.371 179.306C511.371 195.485 566.393 297.582 625.197 298.398C663.177 298.925 705.581 251.067 642.337 210.982C598.527 183.216 534.972 174.61 516.553 176.99C513.226 177.42 511.371 178.208 511.371 179.306Z" fill="#ffffff" fill-rule="nonzero" opacity="1" stroke="#33312c" stroke-linecap="butt" stroke-linejoin="round" stroke-width="15"/>
</g>
<path d="M48.0655 673.915L976.006 673.915L967.716 695.823L56.289 695.823L48.0655 673.915Z" fill="#33312c" fill-rule="nonzero" opacity="1" stroke="none"/>
<g opacity="1">
<path d="M228.824 852.038C221.339 852.038 214.869 850.453 209.415 847.285C203.961 844.117 199.787 839.253 196.892 832.694C193.998 826.135 192.551 817.822 192.551 807.755C192.551 797.665 194.062 789.368 197.085 782.863C200.107 776.358 204.356 771.511 209.831 768.321C215.306 765.132 221.637 763.538 228.824 763.538C236.954 763.538 244.251 765.351 250.716 768.978C257.181 772.604 262.301 777.724 266.076 784.336C269.851 790.949 271.739 798.755 271.739 807.755C271.739 816.755 269.851 824.561 266.076 831.174C262.301 837.786 257.181 842.917 250.716 846.565C244.251 850.213 236.954 852.038 228.824 852.038ZM178.051 850.823L178.051 732.103L203.011 732.103L203.011 782.128L201.411 807.658L201.831 833.19L201.831 850.823L178.051 850.823ZM224.529 831.6C228.675 831.6 232.395 830.654 235.686 828.763C238.978 826.871 241.602 824.12 243.557 820.509C245.513 816.898 246.491 812.647 246.491 807.755C246.491 802.757 245.513 798.489 243.557 794.953C241.602 791.416 238.978 788.702 235.686 786.81C232.395 784.918 228.675 783.973 224.529 783.973C220.382 783.973 216.662 784.918 213.37 786.81C210.077 788.702 207.453 791.416 205.497 794.953C203.542 798.489 202.564 802.757 202.564 807.755C202.564 812.647 203.542 816.898 205.497 820.509C207.453 824.12 210.077 826.871 213.37 828.763C216.662 830.654 220.382 831.6 224.529 831.6Z" fill="#f3c622" fill-rule="nonzero" opacity="1" stroke="none"/>
<path d="M339.279 852.038C332.092 852.038 325.761 850.443 320.286 847.254C314.811 844.065 310.563 839.201 307.54 832.663C304.518 826.124 303.006 817.843 303.006 807.818C303.006 797.644 304.454 789.305 307.348 782.799C310.242 776.293 314.416 771.456 319.87 768.289C325.324 765.121 331.794 763.538 339.279 763.538C347.409 763.538 354.706 765.361 361.171 769.009C367.636 772.656 372.756 777.786 376.531 784.399C380.306 791.011 382.194 798.818 382.194 807.818C382.194 816.819 380.306 824.626 376.531 831.239C372.756 837.851 367.636 842.971 361.171 846.598C354.706 850.224 347.409 852.038 339.279 852.038ZM288.506 881.863L288.506 764.75L312.286 764.75L312.286 782.383L311.866 807.915L313.466 833.448L313.466 881.863L288.506 881.863ZM334.984 831.6C339.131 831.6 342.85 830.654 346.141 828.763C349.433 826.871 352.057 824.13 354.013 820.54C355.969 816.95 356.946 812.709 356.946 807.818C356.946 802.819 355.969 798.541 354.013 794.984C352.057 791.426 349.433 788.702 346.141 786.81C342.85 784.918 339.131 783.973 334.984 783.973C330.837 783.973 327.118 784.918 323.825 786.81C320.533 788.702 317.909 791.426 315.953 794.984C313.997 798.541 313.019 802.819 313.019 807.818C313.019 812.709 313.997 816.95 315.953 820.54C317.909 824.13 320.533 826.871 323.825 828.763C327.118 830.654 330.837 831.6 334.984 831.6Z" fill="#f3c622" fill-rule="nonzero" opacity="1" stroke="none"/>
<path d="M401.997 850.823L401.997 762.795C401.997 753.098 404.868 745.356 410.612 739.569C416.355 733.781 424.566 730.888 435.244 730.888C438.826 730.888 442.306 731.251 445.684 731.976C449.063 732.702 451.924 733.844 454.269 735.403L447.754 753.475C446.388 752.555 444.834 751.817 443.093 751.261C441.352 750.706 439.542 750.428 437.662 750.428C434.008 750.428 431.188 751.469 429.202 753.553C427.215 755.636 426.222 758.791 426.222 763.018L426.222 771.04L426.957 781.77L426.957 850.823L401.997 850.823ZM388.644 785.813L388.644 766.655L448.352 766.655L448.352 785.813L388.644 785.813Z" fill="#f3c622" fill-rule="nonzero" opacity="1" stroke="none"/>
</g>
<g opacity="1">
<path d="M596.586 763.538C603.393 763.538 609.436 764.881 614.716 767.569C619.996 770.256 624.14 774.4 627.147 779.999C630.155 785.598 631.659 792.791 631.659 801.578L631.659 850.823L606.699 850.823L606.699 805.308C606.699 798.388 605.261 793.282 602.386 789.991C599.511 786.701 595.507 785.055 590.374 785.055C586.695 785.055 583.424 785.878 580.559 787.524C577.694 789.17 575.465 791.638 573.872 794.929C572.28 798.22 571.484 802.45 571.484 807.62L571.484 850.823L546.521 850.823L546.521 805.308C546.521 798.388 545.105 793.282 542.272 789.991C539.44 786.701 535.414 785.055 530.196 785.055C526.519 785.055 523.248 785.878 520.382 787.524C517.517 789.17 515.287 791.638 513.695 794.929C512.102 798.22 511.306 802.45 511.306 807.62L511.306 850.823L486.346 850.823L486.346 764.75L510.126 764.75L510.126 788.23L505.596 781.383C508.581 775.541 512.831 771.106 518.345 768.079C523.859 765.051 530.126 763.538 537.146 763.538C545.019 763.538 551.916 765.521 557.836 769.489C563.756 773.456 567.697 779.567 569.659 787.82L560.841 785.385C563.718 778.712 568.319 773.402 574.646 769.456C580.973 765.511 588.286 763.538 596.586 763.538Z" fill="#33312c" fill-rule="nonzero" opacity="1" stroke="none"/>
<path d="M706.864 850.823L706.864 834.048L705.367 830.273L705.367 800.255C705.367 794.893 703.738 790.739 700.481 787.791C697.223 784.844 692.211 783.37 685.444 783.37C680.918 783.37 676.435 784.08 671.996 785.499C667.556 786.918 663.768 788.855 660.629 791.31L651.717 773.94C656.45 770.547 662.117 767.965 668.717 766.194C675.317 764.423 682.03 763.538 688.857 763.538C702.03 763.538 712.235 766.624 719.472 772.796C726.709 778.969 730.327 788.589 730.327 801.658L730.327 850.823L706.864 850.823ZM680.712 852.038C674.017 852.038 668.269 850.907 663.469 848.646C658.669 846.386 654.994 843.282 652.444 839.336C649.894 835.391 648.619 830.943 648.619 825.995C648.619 820.922 649.866 816.46 652.359 812.609C654.853 808.758 658.818 805.739 664.256 803.551C669.693 801.364 676.784 800.27 685.529 800.27L708.307 800.27L708.307 814.815L688.297 814.815C682.397 814.815 678.358 815.766 676.179 817.669C674.001 819.571 672.912 822.007 672.912 824.975C672.912 828.095 674.152 830.596 676.632 832.476C679.112 834.357 682.522 835.298 686.862 835.298C691.054 835.298 694.817 834.325 698.152 832.38C701.487 830.435 703.892 827.508 705.367 823.598L709.137 835.188C707.365 840.664 704.078 844.842 699.276 847.72C694.473 850.598 688.285 852.038 680.712 852.038Z" fill="#33312c" fill-rule="nonzero" opacity="1" stroke="none"/>
<path d="M805.07 763.538C811.918 763.538 818.03 764.881 823.406 767.569C828.782 770.256 833.027 774.4 836.141 779.999C839.255 785.598 840.812 792.791 840.812 801.578L840.812 850.823L815.852 850.823L815.852 805.308C815.852 798.388 814.329 793.282 811.282 789.991C808.236 786.701 803.965 785.055 798.47 785.055C794.471 785.055 790.901 785.888 787.76 787.555C784.618 789.222 782.176 791.753 780.435 795.15C778.693 798.547 777.822 802.915 777.822 808.255L777.822 850.823L752.862 850.823L752.862 764.75L776.642 764.75L776.642 788.613L772.175 781.445C775.266 775.605 779.687 771.161 785.436 768.111C791.185 765.062 797.73 763.538 805.07 763.538Z" fill="#33312c" fill-rule="nonzero" opacity="1" stroke="none"/>
</g>
<path d="M337.809 631.342C337.809 627.658 340.812 624.671 344.516 624.671L678.24 624.671C681.944 624.671 684.947 627.658 684.947 631.342L684.947 668.493C684.947 672.177 681.944 675.164 678.24 675.164L344.516 675.164C340.812 675.164 337.809 672.177 337.809 668.493L337.809 631.342Z" fill="#f2ac22" fill-rule="nonzero" opacity="1" stroke="#33312c" stroke-linecap="round" stroke-linejoin="round" stroke-width="10"/>
<path d="M353.588 580.849C353.588 577.165 356.318 574.178 359.685 574.178L663.071 574.178C666.438 574.178 669.168 577.165 669.168 580.849L669.168 618.001C669.168 621.685 666.438 624.671 663.071 624.671L359.685 624.671C356.318 624.671 353.588 621.685 353.588 618.001L353.588 580.849Z" fill="#f2ac22" fill-rule="nonzero" opacity="1" stroke="#33312c" stroke-linecap="round" stroke-linejoin="round" stroke-width="10"/>
<path d="M385.146 530.356C385.146 526.672 387.33 523.686 390.024 523.686L632.732 523.686C635.426 523.686 637.61 526.672 637.61 530.356L637.61 567.508C637.61 571.192 635.426 574.178 632.732 574.178L390.024 574.178C387.33 574.178 385.146 571.192 385.146 567.508L385.146 530.356Z" fill="#f2ac22" fill-rule="nonzero" opacity="1" stroke="#33312c" stroke-linecap="round" stroke-linejoin="round" stroke-width="10"/>
<path d="M416.704 479.863C416.704 476.179 418.342 473.193 420.362 473.193L602.394 473.193C604.414 473.193 606.052 476.179 606.052 479.863L606.052 517.015C606.052 520.699 604.414 523.686 602.394 523.686L420.362 523.686C418.342 523.686 416.704 520.699 416.704 517.015L416.704 479.863Z" fill="#f2ac22" fill-rule="nonzero" opacity="1" stroke="#33312c" stroke-linecap="round" stroke-linejoin="round" stroke-width="10"/>
<path d="M448.262 439.978C448.262 437.185 449.354 434.922 450.701 434.922C450.701 434.922 481.04 422.7 511.378 422.7C541.717 422.7 572.055 434.922 572.055 434.922C573.402 434.922 574.494 437.185 574.494 439.978L574.494 468.137C574.494 470.929 573.402 473.193 572.055 473.193L450.701 473.193C449.354 473.193 448.262 470.929 448.262 468.137L448.262 439.978Z" fill="#f2ac22" fill-rule="nonzero" opacity="1" stroke="#33312c" stroke-linecap="round" stroke-linejoin="round" stroke-width="10"/>
<path d="M490.941 639.928L531.815 639.928L531.815 663.817L490.941 663.817L490.941 639.928Z" fill="#33312c" fill-rule="nonzero" opacity="1" stroke="#33312c" stroke-linecap="butt" stroke-linejoin="round" stroke-width="10"/>
<path d="M511.378 422.7C481.04 422.7 450.708 434.929 450.708 434.929C449.361 434.929 448.262 437.186 448.262 439.978L448.262 468.144C448.262 470.936 449.361 473.193 450.708 473.193L420.373 473.193C418.352 473.193 416.704 476.176 416.704 479.86L416.704 517.019C416.704 520.703 418.352 523.686 420.373 523.686L390.038 523.686C387.344 523.686 385.146 526.668 385.146 530.352L385.146 567.512C385.146 571.196 387.344 574.178 390.038 574.178L359.703 574.178C356.335 574.178 353.588 577.161 353.588 580.845L353.588 618.005C353.588 621.688 356.335 624.671 359.703 624.671L344.515 624.671C340.811 624.671 337.809 627.654 337.809 631.338L337.809 668.497C337.809 672.181 340.811 675.164 344.515 675.164L678.241 675.164C681.945 675.164 684.947 672.181 684.947 668.497L684.947 631.338C684.947 627.654 681.945 624.671 678.241 624.671L663.054 624.671C666.421 624.671 669.168 621.689 669.168 618.005L669.168 580.845C669.168 577.161 666.421 574.178 663.054 574.178L632.718 574.178C635.412 574.178 637.61 571.196 637.61 567.512L637.61 530.352C637.61 526.668 635.412 523.686 632.718 523.686L602.383 523.686C604.404 523.686 606.052 520.703 606.052 517.019L606.052 479.86C606.052 476.176 604.404 473.193 602.383 473.193L572.048 473.193C573.395 473.193 574.494 470.936 574.494 468.144L574.494 439.978C574.494 437.186 573.395 434.929 572.048 434.929C572.048 434.929 541.717 422.7 511.378 422.7Z" fill="url(#LinearGradient_4)" fill-rule="nonzero" opacity="1" stroke="none"/>
</g>
</svg>
